<svg width="194" height="194" viewBox="0 0 194 194" fill="none" xmlns="http://www.w3.org/2000/svg">
<path d="M194 97C194 123.198 183.615 146.977 166.733 164.425C149.095 182.661 124.374 194 97 194C69.6263 194 44.9011 182.661 27.2631 164.421C10.3851 146.973 0 123.194 0 97C0 70.8062 10.3851 47.0272 27.2631 29.5789C44.9011 11.3391 69.6263 0 97 0C110.813 0 123.95 2.88613 135.84 8.08851L135.844 8.0923C170.079 23.0701 194 57.2417 194 97Z" fill="#FFFAEC"/>
<path d="M165.857 38.1036C166.419 38.6662 166.735 39.4292 166.735 40.2249V164.425C149.097 182.661 124.376 194 97.0021 194C69.6284 194 44.9032 182.661 27.2651 164.421V4.00001C27.2651 1.79087 29.056 0 31.2651 0H126.514C127.31 0 128.073 0.316263 128.636 0.879176L135.842 8.08851L165.857 38.1036Z" fill="#E9DEC2"/>
<g opacity="0.71">
<mask id="mask0" mask-type="alpha" maskUnits="userSpaceOnUse" x="45" y="33" width="104" height="124">
<path d="M149 33H45V157H149V33Z" fill="white"/>
</mask>
<g mask="url(#mask0)">
<path d="M149 33H45V157H149V33Z" fill="white"/>
<path d="M89.25 76.8091C89.45 77.2291 89.0799 77.3091 88.8499 77.4491C88.1274 77.8965 87.3421 78.2336 86.52 78.4491C86.16 78.7691 85.77 78.5691 85.39 78.5391C84.8752 78.4899 84.3683 78.3791 83.8799 78.2091C83.3919 78.122 82.9419 77.8883 82.59 77.5391L82.2299 77.2691C80.1299 75.5391 80.1399 75.4591 81.2299 72.8891C81.5972 72.0178 82.1627 71.2441 82.8813 70.6295C83.6 70.015 84.4521 69.5766 85.37 69.3491C86.09 69.1291 86.43 69.2491 86.37 70.0591C86.3886 70.2657 86.4391 70.4681 86.52 70.6591C86.97 70.8091 87.01 71.2291 87.09 71.5891C87.3818 73.2291 88.0682 74.7735 89.09 76.0891C89.1789 76.1885 89.2409 76.309 89.27 76.4391C89.2903 76.5624 89.2834 76.6887 89.25 76.8091Z" fill="#EEEEF7"/>
<path d="M89.2502 76.8106C87.6619 75.1352 86.6889 72.9706 86.4902 70.6706C86.4902 70.4306 86.4902 70.2006 86.4902 69.9606C86.4902 68.6506 86.4902 68.7106 87.8402 68.6306C89.394 68.6074 90.9421 68.8233 92.4302 69.2706C92.7704 69.3125 93.0831 69.4786 93.3083 69.737C93.5335 69.9954 93.6553 70.3279 93.6502 70.6706C93.6925 71.624 93.5415 72.5762 93.2064 73.4698C92.8713 74.3634 92.359 75.18 91.7002 75.8706C91.4002 76.1906 91.0302 76.4706 90.7002 76.7806C90.2302 77.2806 89.7502 77.3706 89.2502 76.8106Z" fill="#49464A"/>
<path d="M82.5799 77.5293L83.8199 78.0993C83.8244 78.1087 83.8267 78.1189 83.8267 78.1293C83.8267 78.1397 83.8244 78.1499 83.8199 78.1593C83.8248 78.1824 83.8248 78.2062 83.8199 78.2293V78.2993C83.2389 78.2273 82.678 78.0403 82.1699 77.7493L82.5799 77.5293Z" fill="#E6A25F"/>
<path d="M85.2601 78.4199H86.5201L86.7001 78.7699C86.2126 78.821 85.7199 78.7594 85.2601 78.5899C85.1601 78.5366 85.1601 78.4799 85.2601 78.4199Z" fill="#E6A25F"/>
<path d="M96.55 152.821C93.3 159.291 91.33 183.271 84.44 183.511C82.33 183.061 70.23 185.741 71.23 183.091C71.89 177.901 78.47 178.721 81.07 175.541C86.97 168.281 81.96 142.201 82.98 139.061C83.59 139.351 96.36 152.461 96.55 152.821Z" fill="#E09451"/>
<path d="M177.54 146.039C177.2 143.569 168.45 131.039 168.45 131.039C150.62 108.689 165.55 110.279 173.25 91.4393C174.03 75.9293 128.83 72.9093 142.65 120.629C118.65 77.9393 94.3998 120.459 109.2 62.5693C110.87 56.0193 111.52 47.5693 108.2 47.0293C101.04 48.3893 95.3998 58.7493 88.7198 56.8793C78.3198 53.9793 75.1798 58.1793 73.9298 56.9893C71.4598 54.9893 67.4098 51.4693 65.0098 49.3393C64.7483 49.1065 64.4363 48.9377 64.0984 48.8461C63.7605 48.7545 63.406 48.7427 63.0627 48.8115C62.7195 48.8804 62.3969 49.028 62.1205 49.2428C61.844 49.4576 61.6213 49.7337 61.4698 50.0493C58.7798 55.7993 60.7498 63.6793 60.9698 69.7993C41.9698 89.5093 83.0498 106.459 87.5598 118.509C88.1805 122.361 89.3631 126.101 91.0698 129.609C100.54 143.359 95.8198 160.469 96.6598 176.059C97.4698 180.639 92.3298 180.259 91.3098 184.329C90.2098 187.149 94.5798 185.649 96.0198 185.879C98.4198 185.239 104.81 187.209 105.02 184.069C104.6 177.169 105.23 170.599 108.78 164.539C109.71 162.829 117.78 171.859 119.37 173.269C114.23 172.349 110.37 176.329 110.37 181.269C110.25 182.519 110.61 182.789 111.87 182.809C124.67 183.039 140.19 185.189 148.81 173.359C149.31 172.409 149.59 172.249 150.58 172.609C166.57 178.439 182.33 161.909 177.54 146.039ZM144.93 124.669C144.54 124.089 144.23 123.479 143.88 122.879C144.44 123.879 145.01 124.879 145.63 125.759C145.35 125.399 145.18 124.989 144.93 124.669ZM168.1 152.669C166.15 157.669 158.54 163.229 154.39 158.839C155.39 147.309 151.75 135.839 145.85 126.059C152.12 135.209 171.83 138.759 168.1 152.669Z" fill="#F3B171"/>
<path d="M72.6601 93.6706C72.3701 93.9506 70.8401 91.7406 69.7801 93.5606C69.6901 93.7106 69.6601 93.9506 69.4001 93.8806C69.1401 93.8106 69.1801 93.5306 69.2501 93.3306C69.4224 92.6278 69.8322 92.0061 70.4101 91.5706C70.7801 89.7406 69.1801 83.3406 70.7601 83.4306C72.3401 83.5206 70.6701 90.2706 71.0201 91.5706C71.7701 92.0606 72.9501 93.3606 72.6601 93.6706Z" fill="#C97240"/>
<path d="M63.83 65.6703C63.7305 65.7366 63.6163 65.7775 63.4973 65.7894C63.3783 65.8012 63.2582 65.7837 63.1476 65.7382C63.037 65.6928 62.9393 65.6209 62.8629 65.5289C62.7866 65.4368 62.7341 65.3274 62.71 65.2103C62.08 62.2103 61.47 57.9003 62.49 54.3903C62.97 52.7303 63.6 53.6203 63.88 54.2703C65.0232 56.7743 66.3432 59.1938 67.83 61.5103C68.0175 61.8203 68.0785 62.1906 68.0003 62.5444C67.9221 62.8981 67.7107 63.2082 67.41 63.4103C66.8 63.8203 66.19 64.2203 65.59 64.6003C64.99 64.9803 64.42 65.3203 63.83 65.6703Z" fill="#C97240"/>
<path d="M107.63 60.32C106.69 64.44 105.11 71.53 102.19 69.14C100.12 67.44 97.69 66.48 96.59 64.34C96.4578 63.9802 96.4205 63.5925 96.4818 63.2141C96.5431 62.8357 96.7009 62.4796 96.94 62.18C100.11 56.83 111.52 41.35 107.63 60.32Z" fill="#C97240"/>
<path d="M89.2402 123.67C85.9402 113.57 86.8602 109.46 85.8902 101.4C85.1802 95.5598 88.2002 82.5898 71.8002 83.3398C66.4302 83.5798 61.9502 86.5598 62.0702 90.5398C62.2302 96.2698 71.8302 100.72 71.8302 104.96C71.8302 133.28 76.0002 134.1 95.6602 151.44C97.2602 152.85 97.1602 153.31 97.1602 153.31C98.5602 138.67 93.5602 136.85 89.2402 123.67Z" fill="#FFE2B7"/>
<path fill-rule="evenodd" clip-rule="evenodd" d="M77.1799 85.3993C77.0499 84.9793 76.6999 85.1593 76.6499 85.5793C76.4699 87.1093 75.0799 87.7993 73.6499 86.8093C73.3465 86.5742 73.1003 86.2733 72.9299 85.9293C72.7592 85.5842 72.6703 85.2044 72.6699 84.8193C72.7415 84.4269 72.7584 84.0264 72.7199 83.6293C72.6699 83.1893 71.8799 83.4393 71.7999 83.7593C71.7519 83.9735 71.7185 84.1907 71.6999 84.4093C71.6836 84.9498 71.5117 85.4741 71.2048 85.9193C70.898 86.3645 70.4692 86.7118 69.9699 86.9193C68.3999 87.4393 67.9699 86.0993 67.8199 85.1393C67.8199 85.0793 67.6599 85.1393 67.6299 85.1393C67.4714 85.3734 67.3814 85.6469 67.3699 85.9293C67.3564 86.2086 67.4223 86.486 67.5599 86.7293C67.7872 87.0723 68.1039 87.3467 68.4757 87.5229C68.8476 87.6992 69.2605 87.7705 69.6699 87.7293C70.1497 87.7306 70.6216 87.6068 71.039 87.37C71.4563 87.1333 71.8048 86.7918 72.0499 86.3793C72.2677 86.8118 72.5806 87.1894 72.965 87.4838C73.3495 87.7782 73.7956 87.9818 74.2699 88.0793C75.8999 88.5093 77.7799 87.0793 77.2699 85.3893" fill="#E09451"/>
<path d="M72.1198 83.9992C70.9798 83.8292 69.3198 80.9992 69.3898 80.0492C69.5198 78.2692 74.1098 78.1892 75.1898 79.5592C75.6598 80.1592 73.8798 84.1492 72.1198 83.9992Z" fill="#EB5842"/>
<path d="M73.9702 81.5391C74.2402 80.9391 74.3002 80.3591 74.0902 80.2691C73.3902 79.9691 73.3902 81.1391 73.0302 81.6991C72.8102 82.0391 72.8802 82.3691 73.0802 82.4591C73.2802 82.5491 73.6902 82.1491 73.9702 81.5391Z" fill="#FFC1B7"/>
<path d="M80.2599 56.5391C78.5678 57.9448 76.9647 59.4543 75.46 61.0591C74.73 61.8591 74.05 62.7091 73.4 63.5791C72.7503 64.4681 72.1845 65.4155 71.71 66.4091C71.808 65.27 72.1489 64.1652 72.71 63.1691C74.3716 60.1536 77.0301 57.8098 80.2299 56.5391H80.2599Z" fill="#E09451"/>
<path d="M87.3 56.5391C85.6078 57.9448 84.0048 59.4543 82.5 61.0591C81.7697 61.8624 81.082 62.7036 80.44 63.5791C79.7903 64.4681 79.2245 65.4155 78.75 66.4091C78.848 65.27 79.189 64.1652 79.75 63.1691C81.4117 60.1536 84.0701 57.8098 87.27 56.5391H87.3Z" fill="#E09451"/>
<path d="M65.6701 80.4708C66.9293 80.4708 67.9501 78.9217 67.9501 77.0108C67.9501 75.0999 66.9293 73.5508 65.6701 73.5508C64.4109 73.5508 63.3901 75.0999 63.3901 77.0108C63.3901 78.9217 64.4109 80.4708 65.6701 80.4708Z" fill="#964826"/>
<path d="M86.0556 78.654C86.8222 76.8016 86.2315 74.7983 84.7362 74.1796C83.241 73.5608 81.4075 74.561 80.6409 76.4134C79.8743 78.2659 80.4651 80.2692 81.9603 80.8879C83.4555 81.5066 85.2891 80.5065 86.0556 78.654Z" fill="#964826"/>
<path fill-rule="evenodd" clip-rule="evenodd" d="M70.417 104.401C70.636 106.872 70.6784 108.16 71.067 110.667C82.5979 115.791 100.18 105.632 109.732 96.9842C109.448 94.5412 108.148 93.6214 105.508 92.1172L104.641 92.6388L105.508 93.4148C100.06 97.7051 91.1768 102.985 84.4127 104.659C80.1638 105.534 76.0593 106.779 71.8513 105.73C71.8513 105.73 71.8871 105.18 71.8513 104.835C71.8191 104.525 71.6958 104.059 71.6958 104.059C71.2441 104.063 70.802 104.189 70.417 104.421" fill="#F9971E"/>
</g>
</g>
<path d="M61.9763 134.693L51.5136 116.571C50.9147 115.534 49.3795 115.2 48.2507 115.852C47.1219 116.504 46.6435 118 47.2424 119.037L51.3465 126.146L44.8482 129.898L40.7441 122.789C40.1453 121.752 38.6406 121.4 37.4812 122.07C36.2914 122.757 35.8741 124.218 36.4729 125.255L46.9357 143.377C47.5522 144.445 49.0264 144.814 50.2162 144.127C51.3755 143.458 51.8234 141.979 51.2069 140.911L47.1028 133.803L53.6011 130.051L57.7052 137.159C58.3217 138.227 59.8569 138.561 60.9857 137.909C62.145 137.24 62.5928 135.761 61.9763 134.693Z" fill="#00876D"/>
<path d="M69.0603 127.227L75.5586 123.475L78.4054 125.94C79.2037 126.618 80.5146 126.634 81.3078 126.176C82.5587 125.454 83.0465 124.115 82.3772 122.956C82.2891 122.803 82.0472 122.455 81.8981 122.337L65.9266 108.413C64.7949 107.439 63.6915 106.937 62.2271 107.783C60.7627 108.628 60.6634 109.865 60.9537 111.284L65.027 132.078C65.054 132.266 65.2349 132.649 65.323 132.802C65.9923 133.961 67.457 134.173 68.6469 133.486C69.3791 133.064 70.0383 131.951 69.8326 130.89L69.0603 127.227ZM72.4523 120.632L68.1811 123.098L66.7861 116.947C66.5498 115.904 66.033 114.656 65.609 113.64C66.2771 114.516 67.099 115.587 67.8844 116.313L72.4523 120.632Z" fill="#00876D"/>
<path d="M79.4105 92.533C78.8614 92.85 77.9964 92.9019 77.034 92.644C76.4647 92.3626 75.7746 92.4355 75.256 92.735C74.4323 93.2106 73.9256 94.2353 74.9 95.2185C76.4708 96.6709 79.3836 96.2909 81.031 95.3397C82.6785 94.3886 84.525 92.0208 83.9915 89.9695C83.6273 88.634 82.4865 88.5605 81.6628 89.036C81.1136 89.3531 80.7359 89.8966 80.6645 90.548C80.4371 91.4928 79.9597 92.2159 79.4105 92.533ZM89.0529 121.705C87.7106 122.48 86.2493 122.063 85.5976 120.934L75.2053 102.934C74.5888 101.866 74.9756 100.422 76.1654 99.7353C77.3248 99.066 78.86 99.4 79.4764 100.468L86.1346 112C86.1055 105.468 86.0585 101.793 86.0612 95.5271C86.1008 94.6093 86.6603 93.6761 87.4841 93.2005C88.7654 92.4607 90.222 92.7994 90.9089 93.9893L101.301 111.989C101.918 113.057 101.531 114.501 100.341 115.188C99.1817 115.857 97.6465 115.523 97.03 114.455L90.4424 103.045L90.4805 119.457C90.4538 120.327 89.8462 121.247 89.0529 121.705Z" fill="#00876D"/>
<path d="M107.379 96.8058L103.496 89.4473L108.195 86.7348L116.156 100.525L109.81 104.188C109.648 102.004 108.771 99.5 107.379 96.8058ZM105.204 106.848C103.922 107.588 103.715 109.131 104.402 110.321L106.657 114.226C107.291 115.324 108.699 115.65 109.889 114.963C111.079 114.276 111.501 112.894 110.867 111.795L109.546 109.507L120.407 103.237L121.728 105.525C122.362 106.623 123.77 106.949 124.96 106.262C126.181 105.557 126.633 104.157 125.999 103.059L123.744 99.1537C123.057 97.9639 121.709 97.3188 120.427 98.0586L111.515 82.6213C110.828 81.4315 109.148 81.0588 107.867 81.7986L99.5685 86.5896C98.2872 87.3294 97.8311 88.9351 98.4571 90.1601L103.072 99.2108C104.734 102.441 105.524 105.077 105.204 106.848Z" fill="#00876D"/>
<path d="M139.946 89.3118C139.347 88.2745 137.847 88.0015 136.718 88.6532L130.067 92.4931L127.196 87.5202L132.962 84.1912C134.152 83.5042 134.574 82.1216 133.94 81.0233C133.306 79.925 131.793 79.7001 130.725 80.3166L124.959 83.6457L122.123 78.7338L128.469 75.0701C129.628 74.4008 130.147 73.0439 129.512 71.9456C128.896 70.8778 127.391 70.5262 126.232 71.1955L117.964 75.9689C116.622 76.7439 116.249 78.4235 116.866 79.4913L126.782 96.6675C127.733 98.315 129.375 98.0586 130.87 97.1955L138.955 92.5278C140.114 91.8585 140.58 90.4101 139.946 89.3118Z" fill="#00876D"/>
<path d="M158.674 78.8652L148.211 60.7432C147.612 59.7059 146.077 59.3719 144.948 60.0236C143.819 60.6753 143.341 62.1719 143.94 63.2092L148.044 70.3176L141.546 74.0694L137.442 66.9609C136.843 65.9237 135.338 65.5721 134.179 66.2414C132.989 66.9283 132.571 68.3896 133.17 69.4269L143.633 87.5489C144.25 88.6167 145.724 88.9859 146.914 88.299C148.073 87.6296 148.521 86.1507 147.904 85.0829L143.8 77.9745L150.298 74.2227L154.403 81.3312C155.019 82.3989 156.554 82.7329 157.683 82.0812C158.842 81.4119 159.29 79.933 158.674 78.8652Z" fill="#00876D"/>
<path d="M165.934 38.1877H128.406L128.406 0.654297L165.934 38.1877Z" fill="#C1B69A"/>
</svg>
