<svg width="194" height="194" viewBox="0 0 194 194" fill="none" xmlns="http://www.w3.org/2000/svg">
<path d="M194 97C194 123.198 183.615 146.977 166.733 164.425C149.095 182.661 124.374 194 97 194C69.6263 194 44.9011 182.661 27.2631 164.421C10.3851 146.973 0 123.194 0 97C0 70.8062 10.3851 47.0272 27.2631 29.5789C44.9011 11.3391 69.6263 0 97 0C110.813 0 123.95 2.88613 135.84 8.08851L135.844 8.0923C170.079 23.0701 194 57.2417 194 97Z" fill="#FFFAEC"/>
<path d="M165.857 38.1036C166.419 38.6662 166.735 39.4292 166.735 40.2249V164.425C149.097 182.661 124.376 194 97.0021 194C69.6284 194 44.9032 182.661 27.2651 164.421V4.00001C27.2651 1.79087 29.056 0 31.2651 0H126.514C127.31 0 128.073 0.316263 128.636 0.879176L135.842 8.08851L165.857 38.1036Z" fill="#E9DEC2"/>
<path d="M53.1989 158.086C57.5389 158.086 60.3389 155.762 60.3389 151.618C60.3389 148.202 58.4629 145.066 53.1989 145.066H49.0829C47.9069 145.066 46.8989 145.99 46.8989 147.082V163.21C46.8989 164.218 47.8229 165.058 48.8589 165.058C49.9229 165.058 50.8189 164.19 50.8189 163.21V158.086H53.1989ZM50.8189 148.622H53.1989C55.8309 148.622 56.4189 150.134 56.4189 151.59C56.4189 153.606 55.2989 154.53 53.1989 154.53H50.8189V148.622Z" fill="#817965"/>
<path d="M70.4837 165.058C75.3277 165.058 77.7637 161.782 77.7637 157.694V152.15C77.7637 148.174 75.7197 144.814 70.4837 144.814C65.2477 144.814 63.2037 148.174 63.2037 152.15V157.694C63.2037 161.782 65.6397 165.058 70.4837 165.058ZM70.4837 148.37C72.9477 148.37 73.8437 149.882 73.8437 152.15V157.694C73.8437 159.934 72.7797 161.502 70.4837 161.502C68.1877 161.502 67.1237 159.934 67.1237 157.694V152.15C67.1237 149.882 68.0197 148.37 70.4837 148.37Z" fill="#817965"/>
<path d="M93.6508 159.122C93.6508 156.854 92.2508 155.482 90.0108 154.586C92.0548 153.55 93.1468 152.234 93.1468 150.358C93.1468 147.782 91.0468 144.814 86.9028 144.814C84.2988 144.814 80.6868 145.99 80.6868 147.838C80.6868 148.762 81.5828 149.462 82.4788 149.462C83.2628 149.462 83.8788 148.93 84.5228 148.65C85.1388 148.37 85.9228 148.202 86.6788 148.202C88.6668 148.202 89.3388 149.378 89.3388 150.414C89.3388 152.178 87.3508 152.99 85.4748 153.046C84.6348 153.074 83.5428 153.13 83.5428 154.726C83.5428 156.35 84.6348 156.462 85.6988 156.518C87.8548 156.658 89.7588 157.162 89.7588 159.038C89.7588 160.494 88.6108 161.67 86.5108 161.67C84.3548 161.67 83.4028 160.41 82.1988 160.41C81.2468 160.41 80.3788 161.166 80.3788 162.09C80.3788 164.078 84.3268 165.058 86.7908 165.058C90.9908 165.058 93.6508 162.23 93.6508 159.122Z" fill="#817965"/>
<path d="M111.638 163.266C111.638 164.218 112.506 165.058 113.598 165.058C114.662 165.058 115.558 164.218 115.558 163.266V146.606C115.558 145.654 114.662 144.814 113.598 144.814C112.506 144.814 111.638 145.654 111.638 146.606V163.266ZM101.054 146.662C101.054 145.682 100.158 144.814 99.0938 144.814C98.0578 144.814 97.1338 145.654 97.1338 146.662V162.79C97.1338 163.882 98.1418 164.806 99.3178 164.806H103.154C108.418 164.806 110.294 161.67 110.294 158.226C110.294 154.082 107.494 151.758 103.154 151.758H101.054V146.662ZM103.154 155.314C105.254 155.314 106.374 156.238 106.374 158.254C106.374 159.71 105.786 161.25 103.154 161.25H101.054V155.314H103.154Z" fill="#817965"/>
<path d="M123.094 152.15C123.094 149.742 123.934 148.23 126.454 148.23C127.35 148.23 128.078 148.454 128.778 148.902L129.058 149.07C129.422 149.294 129.618 149.49 130.262 149.49C131.326 149.49 132.11 148.706 132.11 147.81C132.11 146.186 129.282 144.814 126.314 144.814C121.414 144.814 119.174 147.726 119.174 152.15V157.694C119.174 162.118 121.414 165.03 126.314 165.03C129.282 165.03 132.11 163.658 132.11 162.034C132.11 161.138 131.326 160.354 130.262 160.354C129.618 160.354 129.422 160.55 129.058 160.774L128.778 160.942C128.078 161.39 127.35 161.614 126.454 161.614C123.934 161.614 123.094 160.102 123.094 157.694V152.15Z" fill="#817965"/>
<path d="M139.347 146.606C139.347 145.654 138.451 144.814 137.387 144.814C136.295 144.814 135.427 145.654 135.427 146.606V163.238C135.427 164.218 136.295 165.058 137.387 165.058C138.451 165.058 139.347 164.218 139.347 163.238V156.714H139.655L145.283 164.246C145.703 164.806 146.263 165.058 146.907 165.058C148.111 165.058 148.811 163.994 148.811 163.182C148.811 162.902 148.755 162.622 148.503 162.23L142.987 154.922L148.503 147.642C148.755 147.25 148.811 146.97 148.811 146.69C148.811 145.878 148.111 144.814 146.907 144.814C146.263 144.814 145.703 145.066 145.283 145.626L139.683 153.13H139.347V146.606Z" fill="#817965"/>
<mask id="mask0" mask-type="alpha" maskUnits="userSpaceOnUse" x="45" y="33" width="104" height="104">
<path d="M148.865 33.2695H45.1348V137H148.865V33.2695Z" fill="white"/>
</mask>
<g mask="url(#mask0)">
<path d="M148.865 33.2695H45.1348V137H148.865V33.2695Z" fill="white"/>
<path fill-rule="evenodd" clip-rule="evenodd" d="M82.6528 56.1083C82.6919 55.428 82.5122 54.7528 82.1392 54.179C81.7662 53.6052 81.219 53.162 80.5755 52.9125C79.2789 52.4437 77.8784 52.3259 76.5199 52.5713C75.1648 52.8241 73.7866 52.9362 72.4078 52.9055C70.2034 52.7175 67.787 51.5687 65.957 52.7802C64.2684 53.8872 64.233 56.2615 64.3673 58.2597C64.5792 61.3418 64.7983 64.4239 65.0244 67.506C65.1303 69.0657 65.2999 70.7576 66.388 71.8925C66.9401 72.4305 67.6435 72.7926 68.4071 72.9317C69.1706 73.0707 69.9589 72.9803 70.6697 72.6723C71.3714 72.3461 71.9801 71.8536 72.4413 71.2388C72.9024 70.6239 73.2017 69.906 73.3122 69.1492L82.6528 56.1083Z" fill="#C97240"/>
<path fill-rule="evenodd" clip-rule="evenodd" d="M78.3077 132.23C77.5305 146.615 77.7 161.174 78.1876 175.733C78.2511 177.599 78.456 179.667 77.3821 181.129C76.9299 181.755 76.2657 182.264 76.1244 183.043C76.076 183.456 76.1579 183.873 76.359 184.238C76.56 184.603 76.8704 184.899 77.2478 185.083C77.9769 185.387 78.7693 185.513 79.5583 185.452C82.2644 185.452 85.3167 185.299 87.1537 183.127C88.1782 181.915 88.6304 180.272 89.026 178.685C91.3081 169.445 92.7435 160.021 93.3148 150.528L78.3077 132.23Z" fill="#C97240"/>
<path fill-rule="evenodd" clip-rule="evenodd" d="M78.6115 57.2281C78.2441 57.6389 77.905 58.0705 77.5659 58.5022C73.807 63.4874 72.62 69.8373 67.872 74.1123C65.9431 75.8321 63.6751 77.1898 61.9581 79.1114C60.0794 81.3379 59.0154 84.1224 58.9373 87.017C58.8591 89.9115 59.7713 92.7479 61.5272 95.0696C64.2407 98.1477 67.8135 100.371 71.8004 101.461C75.323 102.313 78.97 102.549 82.5753 102.158C82.6177 103.55 82.865 105.764 82.865 105.764C82.865 105.764 90.4463 106.356 91.1599 106.252C94.0539 105.924 96.911 105.335 99.695 104.49C105.616 102.541 109.883 100.431 114.045 95.7868C111.925 87.2925 110.279 77.4474 108.131 68.8207C107.1 64.6432 106.012 60.3264 103.235 57.054C100.905 54.4001 97.7096 52.6298 94.198 52.0479C91.3674 51.5291 88.4491 51.7327 85.7208 52.6395C82.9926 53.5462 80.5452 55.1258 78.6115 57.2281Z" fill="#F3B171"/>
<path fill-rule="evenodd" clip-rule="evenodd" d="M77.9968 142.271C78.2085 142.737 78.469 143.18 78.774 143.593C79.3616 144.342 80.0115 145.041 80.717 145.682C84.5418 149.354 88.5079 152.858 92.6154 156.196C95.0106 158.152 97.4623 160.06 99.9423 161.898C101.567 163.105 103.216 164.284 104.888 165.435C104.29 168.849 104.995 172.361 106.866 175.294C107.707 176.651 108.698 177.912 109.82 179.054C103.92 180.6 100.557 186.128 105.581 187.131C106.994 187.409 125.244 188.732 136.669 187.43C139.982 187.054 142.724 186.455 144.3 185.543C149.358 182.647 152.481 176.262 153.555 171.325C153.555 171.214 153.605 171.117 153.626 171.005C155.484 161.815 152.792 152.157 148.193 144.046C143.593 135.935 137.213 129.09 131.002 122.225C124.792 115.36 118.878 109.477 115.161 99.8477C105.716 106.966 93.8212 110.162 82.0171 108.753C77.8626 119.587 77.1207 140.272 77.9968 142.285" fill="#F3B171"/>
<path fill-rule="evenodd" clip-rule="evenodd" d="M75.2201 90.4121C75.0646 90.6976 75.75 91.8673 75.9266 92.1249C76.2384 92.6845 76.6258 93.1998 77.0783 93.6567C78.0297 94.5853 79.2779 95.1609 80.611 95.2859C80.0562 96.3432 79.2041 97.2206 78.1566 97.8132C77.1091 98.4059 75.9106 98.6888 74.7043 98.628C73.4983 98.5084 72.3521 98.0516 71.4007 97.3114C70.4493 96.5713 69.7324 95.5787 69.3345 94.4504C69.3345 94.4504 71.0796 94.2555 71.2704 94.158C71.7654 93.9049 72.2381 93.6115 72.6835 93.2807C73.7709 92.5432 74.6685 91.5657 75.3048 90.426" fill="#C97240"/>
<path fill-rule="evenodd" clip-rule="evenodd" d="M94.6996 82.586C95.846 82.9576 97.0668 83.0491 98.257 82.8526C99.4472 82.6561 100.571 82.1776 101.532 81.4581C102.408 80.6606 103.088 79.6767 103.52 78.5811C103.953 77.4856 104.126 76.3074 104.026 75.1361C103.81 72.7936 103.087 70.524 101.906 68.4799C100.982 66.5646 99.6687 64.8562 98.0486 63.4599C97.2308 62.7726 96.2654 62.2771 95.2252 62.0105C94.185 61.744 93.0969 61.7134 92.043 61.9211C91.113 62.1936 90.2532 62.6597 89.5218 63.288C88.7904 63.9162 88.2045 64.6919 87.8037 65.5625C87.0161 67.3109 86.6857 69.226 86.8428 71.1326C86.9396 73.5929 87.669 75.9886 88.9624 78.0952C90.2893 80.2025 92.3286 81.7807 94.7208 82.5512" fill="#C97240"/>
<path fill-rule="evenodd" clip-rule="evenodd" d="M74.4496 76.2378C75.1985 76.6208 76.1171 76.1613 76.7176 75.5834C77.46 74.8444 77.9702 73.91 78.187 72.8924C78.4039 71.8747 78.318 70.817 77.9399 69.8462C77.8245 69.449 77.595 69.0931 77.2791 68.8214C76.9632 68.5496 76.5745 68.3736 76.1595 68.3145C75.2975 68.3145 74.6757 69.1082 74.3153 69.8741C73.6403 71.2916 73.3645 72.862 73.5169 74.4206C73.5158 74.7746 73.5997 75.1237 73.7618 75.4396C73.9239 75.7555 74.1596 76.029 74.4496 76.2378Z" fill="#964826"/>
<path fill-rule="evenodd" clip-rule="evenodd" d="M98.4233 70.2641C98.2863 69.6514 98.0137 69.076 97.625 68.5791C97.4312 68.3331 97.1841 68.1329 96.9017 67.9932C96.6193 67.8534 96.3088 67.7777 95.9928 67.7715C94.9966 67.8063 94.2477 68.6766 93.8237 69.5678C93.0745 71.1878 92.9835 73.0291 93.5693 74.7132C93.9509 75.7993 94.7987 76.8855 95.9504 76.9203C96.3028 76.9104 96.6481 76.8204 96.9594 76.6574C97.2707 76.4943 97.5396 76.2626 97.7451 75.9803C98.1543 75.4103 98.4251 74.7552 98.5364 74.0656C98.7891 72.8062 98.7504 71.5068 98.4233 70.2641Z" fill="#964826"/>
<path fill-rule="evenodd" clip-rule="evenodd" d="M84.8996 90.4339C84.6453 89.6402 83.9811 89.9744 83.8893 90.7821C83.5289 93.6924 80.8793 95.0223 78.1167 93.1284C77.5383 92.6746 77.0705 92.0988 76.7477 91.4433C76.4249 90.7879 76.2553 90.0694 76.2515 89.3408C76.3906 88.5899 76.4215 87.8234 76.3433 87.064C76.2514 86.2215 74.7394 86.695 74.5911 87.3147C74.5039 87.724 74.4402 88.1377 74.4003 88.554C74.0399 90.5871 73.3334 92.6062 71.1078 93.3373C68.112 94.333 67.3065 91.7707 67.0098 89.9396C67.0098 89.8282 66.6989 89.9396 66.6353 90.0231C66.3339 90.4691 66.1626 90.9881 66.1402 91.5234C66.1178 92.0587 66.2451 92.5899 66.5081 93.0588C67.2147 94.521 69.0658 94.883 70.5355 94.9039C71.4537 94.9055 72.3561 94.6681 73.1513 94.2157C73.9466 93.7634 74.6066 93.1121 75.0644 92.3277C75.4819 93.1451 76.079 93.8604 76.8123 94.4217C77.5457 94.9829 78.3968 95.376 79.3037 95.5723C82.4196 96.38 85.9948 93.7063 84.9561 90.4339" fill="#E09451"/>
<path fill-rule="evenodd" clip-rule="evenodd" d="M70.7618 86.5347C71.9776 87.8822 73.679 88.709 75.5041 88.8391C77.3291 88.9691 79.1336 88.3921 80.5334 87.2309C81.5014 86.4233 82.2786 85.1978 81.9465 83.9933C81.7913 83.5175 81.5289 83.0825 81.1789 82.7208C80.829 82.3591 80.4006 82.08 79.9258 81.9045C77.8909 81.0272 75.5593 81.2849 73.3619 81.5982C72.6559 81.6685 71.9637 81.8373 71.3059 82.0995C70.9763 82.2281 70.6763 82.4207 70.4238 82.6659C70.1713 82.9111 69.9715 83.2039 69.8362 83.5268C69.4688 84.5434 70.0129 85.6783 70.7336 86.4929" fill="#964826"/>
<path fill-rule="evenodd" clip-rule="evenodd" d="M76.0325 83.1096H75.9759C75.9036 83.0565 75.8223 83.0164 75.7357 82.9913H75.6015C74.6829 82.6797 73.6822 82.697 72.7753 83.04H72.6905C71.9839 83.2141 70.9594 83.5831 70.9453 84.4325C70.9453 84.7806 71.2632 84.9269 71.5883 84.9199C72.9848 84.8735 74.3683 84.6393 75.7004 84.2236C76.1879 84.0635 76.6613 83.4786 76.0042 83.1583" fill="#C97240"/>
<path fill-rule="evenodd" clip-rule="evenodd" d="M78.7316 82.9903C78.5488 82.926 78.3508 82.9162 78.1624 82.962C77.9739 83.0078 77.8033 83.1072 77.6718 83.2479C77.6178 83.304 77.5791 83.3725 77.5592 83.4473C77.5393 83.522 77.5389 83.6005 77.5579 83.6754C77.5769 83.7504 77.6148 83.8194 77.668 83.8761C77.7213 83.9328 77.7882 83.9754 77.8626 83.9998C77.9828 84.0853 78.12 84.1447 78.2653 84.1739C78.5762 84.2226 79.1979 84.0346 79.1979 83.6378C79.1964 83.4959 79.151 83.3578 79.0676 83.2421C78.9843 83.1264 78.867 83.0385 78.7316 82.9903Z" fill="#C97240"/>
<path fill-rule="evenodd" clip-rule="evenodd" d="M121.188 49.3538C121.407 49.869 121.605 50.3842 121.782 50.8716C123.341 55.1354 124.007 59.6665 123.739 64.191C123.64 65.8202 123.265 67.6723 121.824 68.4799C120.072 69.4408 117.938 68.2502 116.398 66.983C113.597 64.6677 111.171 61.9441 109.205 58.9064C107.142 55.7245 106.57 59.9926 104.683 60.4869C102.797 60.9812 99.6384 59.0387 98.3242 57.8272C97.1937 56.8037 95.1518 54.7219 96.2752 53.2597C98.4726 50.4051 100.281 46.1022 104.097 45.1066C106.442 44.5008 108.944 45.2667 111.339 44.8977C112.406 44.7306 113.416 44.3477 114.469 44.1249C118.002 43.3868 119.973 46.4573 121.195 49.3677" fill="#C97240"/>
<path fill-rule="evenodd" clip-rule="evenodd" d="M110.322 45.2472C111.078 45.2124 111.834 45.2472 112.597 45.2054C113.36 45.1636 114.236 44.9826 115.056 44.9199C115.303 44.9199 115.699 45.1845 115.345 45.3586C113.759 46.0676 111.989 46.2744 110.279 45.9504C109.742 45.8459 109.771 45.2541 110.322 45.2541" fill="#AD552B"/>
<path fill-rule="evenodd" clip-rule="evenodd" d="M78.7739 143.601C79.359 144.349 80.0066 145.048 80.7099 145.689C84.53 149.361 88.4913 152.866 92.594 156.203C92.5387 148.549 91.7079 140.92 90.1141 133.428C89.891 131.914 89.3651 130.459 88.5667 129.146C88.1584 128.498 87.5758 127.974 86.8836 127.633C86.1914 127.291 85.4166 127.145 84.6454 127.211C84.0744 127.333 83.5362 127.573 83.0662 127.915C82.5961 128.257 82.2049 128.693 81.9181 129.195C81.348 130.198 80.9426 131.284 80.7169 132.412C79.7976 136.088 79.1483 139.825 78.7739 143.594" fill="#FFE2B7"/>
<path fill-rule="evenodd" clip-rule="evenodd" d="M68.0273 53.0517C68.7339 53.0517 69.4404 53.17 70.147 53.1909C71.0743 53.1356 71.9971 53.0216 72.9096 52.8497C73.2699 52.8149 73.7857 53.2257 73.3123 53.4833C72.4677 53.8791 71.5464 54.0908 70.6112 54.1041C69.676 54.1173 68.7489 53.9317 67.8931 53.5599C67.5681 53.4068 67.667 53.0447 68.0132 53.0517" fill="#AD552B"/>
<path fill-rule="evenodd" clip-rule="evenodd" d="M92.2975 131.686C91.2588 146.634 91.4355 161.625 90.8844 176.81C90.8066 178.746 90.4604 180.855 89.2028 182.38C88.6729 183.014 87.9027 183.529 87.7332 184.33C87.6833 184.772 87.7784 185.22 88.0046 185.605C88.2309 185.991 88.5765 186.296 88.9908 186.474C89.8288 186.808 90.7302 186.96 91.6333 186.92C94.728 186.989 99.5467 186.989 101.688 184.782C102.882 183.543 103.426 181.844 103.899 180.208C106.662 170.684 108.463 160.914 109.276 151.042L92.2975 131.686Z" fill="#F3B171"/>
<path fill-rule="evenodd" clip-rule="evenodd" d="M92.5238 133.364C92.5944 132.967 93.3999 133.169 93.3575 133.566C92.9477 136.72 92.8064 139.895 92.4602 143.056C92.4107 143.473 91.4993 143.306 91.4922 142.909C91.5291 139.702 91.8745 136.506 92.5238 133.364Z" fill="#E09451"/>
<path fill-rule="evenodd" clip-rule="evenodd" d="M71.327 105.362C69.83 103.004 69.3232 100.165 69.9139 97.4454C70.0129 96.9998 70.0552 96.596 70.4439 96.3453C70.8554 96.0796 71.3166 95.8973 71.8004 95.8092C72.3694 95.6892 72.9631 95.7732 73.4749 96.0459C73.7081 96.1782 73.9413 96.3732 74.1815 96.3175C74.4217 96.2618 74.5489 96.1016 74.7538 96.0459C74.9587 95.9902 75.1212 96.0459 75.2837 95.9833C75.7997 95.8648 76.3319 95.8295 76.8593 95.8788C77.7563 95.9869 78.5964 96.3692 79.2616 96.972C78.9648 96.7074 77.9969 98.2113 77.9121 98.3645C77.5054 99.2043 77.2246 100.098 77.0784 101.017C76.8593 102.681 77.4811 104.45 76.612 106.002C76.3671 106.436 76.0065 106.794 75.5693 107.04C75.1321 107.285 74.6351 107.408 74.1321 107.395C72.8956 107.325 71.9206 106.344 71.2635 105.306" fill="#FF826F"/>
<path fill-rule="evenodd" clip-rule="evenodd" d="M74.4432 95.8776C74.5845 95.7801 74.9236 95.8776 74.8105 96.1004C74.4633 96.5895 74.1719 97.1149 73.9415 97.667C73.7838 98.2709 73.6891 98.8891 73.6589 99.512C73.6589 99.8532 73.0371 99.6304 72.9523 99.3937C72.86 98.7376 72.9469 98.0693 73.204 97.4574C73.4611 96.8454 73.879 96.3121 74.4149 95.9124" fill="#EB5842"/>
<path fill-rule="evenodd" clip-rule="evenodd" d="M84.0593 101.386C90.4182 100.537 96.1201 99.1232 101.723 95.9204C101.935 95.795 102.43 96.0457 102.168 96.2476C97.1446 99.9099 90.5736 102.347 84.2712 102.138C83.819 102.138 83.4304 101.442 84.0522 101.386" fill="#E09451"/>
<path fill-rule="evenodd" clip-rule="evenodd" d="M81.2754 103.106C81.4944 105.578 81.5368 106.866 81.9254 109.372C93.4563 114.497 106.782 109.908 116.334 101.261C116.05 98.8179 115.539 96.4058 114.808 94.0547L113.692 94.4446L114.095 95.6491C108.646 99.9394 102.326 103.026 95.5618 104.7C91.313 105.575 86.9177 105.485 82.7097 104.436L82.5542 102.765C82.1025 102.769 81.6604 102.894 81.2754 103.127" fill="#F9971E"/>
</g>
<path d="M165.934 38.1877H128.406L128.406 0.654297L165.934 38.1877Z" fill="#C1B69A"/>
</svg>
